<svg xmlns="http://www.w3.org/2000/svg" viewBox="0 0 512 512" role="img" aria-label="Daily Work Tracker app icon">
  <defs>
    <linearGradient id="bg" x1="96" y1="48" x2="416" y2="464" gradientUnits="userSpaceOnUse">
      <stop offset="0" stop-color="#6366f1"/>
      <stop offset="1" stop-color="#4f46e5"/>
    </linearGradient>
    <filter id="shadow" x="-20%" y="-20%" width="140%" height="140%">
      <feDropShadow dx="0" dy="18" stdDeviation="16" flood-color="#312e81" flood-opacity=".28"/>
    </filter>
  </defs>
  <rect width="512" height="512" rx="112" fill="url(#bg)"/>
  <g filter="url(#shadow)">
    <rect x="126" y="108" width="260" height="296" rx="38" fill="#fff" opacity=".98"/>
    <rect x="166" y="158" width="88" height="18" rx="9" fill="#4f46e5" opacity=".9"/>
    <rect x="166" y="212" width="154" height="18" rx="9" fill="#4f46e5" opacity=".18"/>
    <rect x="166" y="272" width="138" height="18" rx="9" fill="#4f46e5" opacity=".18"/>
    <rect x="166" y="332" width="112" height="18" rx="9" fill="#4f46e5" opacity=".18"/>
    <path d="M347 172c11 0 20 9 20 20v42c0 11-9 20-20 20h-42c-11 0-20-9-20-20v-42c0-11 9-20 20-20h42Z" fill="#4f46e5"/>
    <path d="M306 213l14 14 31-37" fill="none" stroke="#fff" stroke-width="18" stroke-linecap="round" stroke-linejoin="round"/>
    <circle cx="137" cy="158" r="19" fill="#4f46e5" opacity=".16"/>
    <circle cx="137" cy="272" r="19" fill="#4f46e5" opacity=".16"/>
    <circle cx="137" cy="332" r="19" fill="#4f46e5" opacity=".16"/>
  </g>
</svg>
